<svg width="27" height="20" viewBox="0 0 27 20" fill="none" xmlns="http://www.w3.org/2000/svg">
<g clip-path="url(#clip0_505_2)">
<path d="M4.985 9.55526C4.94444 9.46312 4.83687 9.39612 4.70725 9.38214L3.39421 9.24081L2.80749 8.36265C2.69132 8.18901 2.30736 8.18901 2.19118 8.36265L1.60446 9.24081L0.294538 9.38214C0.165286 9.39612 0.0577079 9.46335 0.0171552 9.55554C-0.0233976 9.64745 0.0102997 9.74855 0.104114 9.81624L1.05418 10.5022L0.830056 11.47C0.808065 11.5654 0.861011 11.6622 0.966849 11.7192C1.07306 11.776 1.21365 11.7834 1.32913 11.7383L2.4992 11.2813L3.6727 11.7383C3.72291 11.7579 3.77791 11.7676 3.83254 11.7676C3.90368 11.7676 3.97482 11.751 4.03499 11.7192C4.14088 11.6619 4.19377 11.5655 4.17178 11.47L3.94803 10.5022L4.89809 9.81628C4.99191 9.74878 5.02555 9.64745 4.985 9.55526Z" fill="black"/>
<path d="M10.4843 9.55526C10.4437 9.46312 10.3361 9.39612 10.2065 9.38214L8.89348 9.24081L8.30676 8.36265C8.19058 8.18901 7.80662 8.18901 7.69045 8.36265L7.10373 9.24081L5.79381 9.38214C5.66455 9.39612 5.55698 9.46335 5.51642 9.55554C5.47587 9.64745 5.50957 9.74855 5.60338 9.81624L6.55344 10.5022L6.32932 11.47C6.30733 11.5654 6.36028 11.6625 6.46612 11.7192C6.57201 11.776 6.71291 11.7834 6.8284 11.7383L7.99847 11.2813L9.17197 11.7383C9.22217 11.7579 9.27717 11.7676 9.33181 11.7676C9.40295 11.7676 9.47409 11.751 9.53425 11.7192C9.64015 11.6619 9.69304 11.5655 9.67105 11.47L9.4473 10.5022L10.3974 9.81628C10.4912 9.74878 10.5248 9.64745 10.4843 9.55526Z" fill="black"/>
<path d="M15.984 9.55526C15.9435 9.46312 15.8359 9.39612 15.7063 9.38214L14.3932 9.24081L13.8065 8.36265C13.6903 8.18901 13.3064 8.18901 13.1902 8.36265L12.6035 9.24081L11.2936 9.38214C11.1643 9.39612 11.0567 9.46335 11.0162 9.55554C10.9756 9.64745 11.0093 9.74855 11.1031 9.81624L12.0532 10.5022L11.8291 11.47C11.8071 11.5654 11.86 11.6622 11.9659 11.7192C12.0721 11.776 12.2127 11.7834 12.3282 11.7383L13.4982 11.2813L14.6717 11.7383C14.7219 11.7579 14.7769 11.7676 14.8315 11.7676C14.9026 11.7676 14.9738 11.751 15.034 11.7192C15.1398 11.6619 15.1927 11.5655 15.1708 11.47L14.947 10.5022L15.8971 9.81628C15.9909 9.74878 16.0246 9.64745 15.984 9.55526Z" fill="black"/>
<path d="M21.4835 9.55526C21.443 9.46312 21.3354 9.39612 21.2058 9.38214L19.8927 9.24081L19.306 8.36265C19.1899 8.18901 18.8059 8.18901 18.6897 8.36265L18.103 9.24081L16.7931 9.38214C16.6638 9.39612 16.5562 9.46335 16.5157 9.55554C16.4751 9.64745 16.5088 9.74855 16.6027 9.81624L17.5527 10.5022L17.3286 11.47C17.3066 11.5654 17.3595 11.6622 17.4654 11.7192C17.5716 11.776 17.7122 11.7834 17.8277 11.7383L18.9977 11.2813L20.1712 11.7383C20.2214 11.7579 20.2764 11.7676 20.331 11.7676C20.4022 11.7676 20.4733 11.751 20.5335 11.7192C20.6394 11.6619 20.6923 11.5655 20.6703 11.47L20.4465 10.5022L21.3966 9.81628C21.4904 9.74878 21.5241 9.64745 21.4835 9.55526Z" fill="black"/>
<path d="M26.9833 9.55526C26.9424 9.46311 26.8352 9.39612 26.7055 9.38214L25.3925 9.24081L24.8058 8.36265C24.6896 8.18901 24.3056 8.18901 24.1895 8.36265L23.6028 9.24081L22.2928 9.38214C22.1636 9.39612 22.056 9.46335 22.0154 9.55554C21.9749 9.64745 22.0086 9.74855 22.1024 9.81624L23.0525 10.5022L22.8283 11.47C22.8064 11.5654 22.8593 11.6622 22.9651 11.7192C23.0249 11.7513 23.0958 11.7676 23.1669 11.7676C23.2219 11.7676 23.2769 11.7579 23.3277 11.7383L24.4978 11.2812L25.6716 11.7383C25.7871 11.7839 25.9273 11.7762 26.0336 11.7189C26.1391 11.6619 26.1921 11.5654 26.1701 11.4699L25.9463 10.5021L26.8964 9.8162C26.9901 9.74878 27.0235 9.64745 26.9833 9.55526Z" fill="black"/>
</g>
<defs>
<clipPath id="clip0_505_2">
<rect width="27" height="20" fill="white"/>
</clipPath>
</defs>
</svg>
